<?xml version="1.0" encoding="utf-8"?>
<!-- Generator: Adobe Illustrator 21.0.0, SVG Export Plug-In . SVG Version: 6.00 Build 0)  -->
<svg version="1.2" baseProfile="tiny" id="Camada_1"
	 xmlns="http://www.w3.org/2000/svg" xmlns:xlink="http://www.w3.org/1999/xlink" x="0px" y="0px" viewBox="0 0 613.6 175.3"
	 xml:space="preserve">
<circle fill="#FFFFFF" cx="87.7" cy="87.7" r="87.7"/>
<g>
	<polygon fill="#A8122E" points="48.2,53 108.6,87.6 48.5,122.6 	"/>
	<polygon fill="#D20975" points="83.6,52.9 144.1,87.4 83.9,122.5 	"/>
</g>
<g>
	<path fill="#FFFFFF" d="M236.7,38.7V73c5.3-7.4,12.4-9.8,19.6-9.8c17,0,24.9,11.4,24.9,28.7v32.6h-12.6V92c0-11.4-5.9-17-15.2-17
		c-9.8,0-16.7,8.1-16.7,18v31.5h-12.6V38.7H236.7z"/>
	<path fill="#FFFFFF" d="M352.1,64h12.3c0,20.1,0,40.3,0,60.4h-12l-0.6-9.8c-4,7.7-13.4,11.4-20.8,11.4c-17.6,0.1-31-11.3-31-31.9
		c0-20.2,13.8-31.5,31.2-31.5c8.6,0,16.8,4,20.6,10.9L352.1,64z M312.5,94.2c0,12.5,8.8,20.1,19.6,20.1c26.1,0,26.1-40.1,0-40.1
		C321.3,74.2,312.5,81.8,312.5,94.2z"/>
	<path fill="#FFFFFF" d="M387.6,152.5V64h11.9l0.7,9.8c4.7-7.4,13.2-11,21.3-11c18,0.1,30.5,13.2,30.5,31.5
		c0,18.3-11.8,31.5-30.5,31.5c-7.4,0-16.8-2.7-21.3-10.2v36.9H387.6z M439.4,94.3c0-11.4-7.6-19.2-19.1-19.2c-11.6,0-19,8.5-19,19.2
		c0,10.8,8,19.2,19,19.2C431.4,113.5,439.4,105.6,439.4,94.3z"/>
	<path fill="#FFFFFF" d="M471.7,152.5V64h11.9l0.7,9.8c4.7-7.4,13.2-11,21.3-11c18,0.1,30.5,13.2,30.5,31.5
		c0,18.3-11.8,31.5-30.5,31.5c-7.4,0-16.8-2.7-21.3-10.2v36.9H471.7z M523.5,94.3c0-11.4-7.6-19.2-19.1-19.2c-11.6,0-19,8.5-19,19.2
		c0,10.8,8,19.2,19,19.2C515.4,113.5,523.5,105.6,523.5,94.3z"/>
	<path fill="#FFFFFF" d="M611.1,64L573,152.5h-14l12.5-28.9L547.4,64h14.7l10.4,28.5l6,17.2l6.5-16.9L597,64H611.1z"/>
</g>
</svg>
